<?xml version="1.0" encoding="utf-8"?>
<!-- Generator: Adobe Illustrator 15.0.0, SVG Export Plug-In . SVG Version: 6.00 Build 0)  -->
<!DOCTYPE svg PUBLIC "-//W3C//DTD SVG 1.1//EN" "http://www.w3.org/Graphics/SVG/1.1/DTD/svg11.dtd">
<svg version="1.1" id="Layer_1" xmlns="http://www.w3.org/2000/svg" xmlns:xlink="http://www.w3.org/1999/xlink" x="0px" y="0px"
	 width="2342.23px" height="1982.921px" viewBox="0 0 2342.23 1982.921" enable-background="new 0 0 2342.23 1982.921"
	 xml:space="preserve">
<g>
	<polygon fill="#0C3A59" points="2329.831,1719.351 1583.626,1797.878 1552.805,1504.955 2299.018,1426.386 2132.78,1590.035 	"/>
</g>
<g>
	<polygon fill="#0C3A59" points="4,1719.351 750.194,1797.878 781.028,1504.955 34.814,1426.386 201.064,1590.035 	"/>
</g>
<g>
	<polygon fill="#200000" points="1486.717,1726.179 1455.896,1433.238 2013.785,1601.791 2067.117,1891.535 	"/>
	<polygon fill="#200000" points="847.106,1726.179 877.939,1433.238 320.054,1601.791 266.719,1891.535 	"/>
</g>
<path fill="#E20C0C" d="M1111.881,519.426c0,0-104.458,19.574-185.251-45.697c-96.777-78.184-579.826-102.011-603.828,453.045
	s336.033,888.228,336.033,888.228l1113.111-66.145c0,0,285.496-354.245,234.023-864.612
	c-53.506-530.528-483.717-452.521-483.717-452.521L1111.881,519.426z"/>
<path fill="#F72B2B" d="M1164.107,1759.028l551.362-115.182c0,0,210.021-318.032,201.021-621.062s-82.178-413.512-258.026-498.05
	c-164.858-79.254-308.038,53.297-493.399,71.451L1164.107,1759.028z"/>
<g id="Layer_3">
	<g>
		<polygon fill="#EBEBEB" points="778.624,734.174 1542.033,734.174 1528.984,884.245 945.009,884.245 961.317,1039.208 
			1515.93,1039.208 1473.514,1505.734 1164.239,1598.708 848.764,1509 825.93,1269.207 980.896,1269.207 990.678,1391.546 
			1164.107,1437.77 1331.611,1389.923 1347.918,1195.8 819.403,1195.8 		"/>
		<g>
			<polygon fill="#FFFFFF" points="1164.7,1039.208 1515.924,1039.208 1473.508,1505.734 1164.239,1598.708 1164.107,1437.77 
				1331.605,1389.923 1347.912,1195.8 1164.571,1195.8 			"/>
			<polygon fill="#FFFFFF" points="1165.036,884.245 1533.685,884.245 1546.734,734.174 1165.036,734.174 			"/>
		</g>
	</g>
</g>
<path fill="#D52F2F" d="M1165.064,596.185"/>
<path fill="#D52F2F" d="M1164.107,1759.028"/>
<g id="Layer_5">
	<path fill="#0D83D3" d="M1166.917,1962.626c294.562,0,725.92-39.557,900.199-71.092l-52.685-289.82
		c-149.722,27.406-552.955,66.357-847.516,66.357c-294.554,0-697.786-38.951-847.527-66.357l-52.67,289.82
		C441.001,1923.07,872.364,1962.626,1166.917,1962.626z"/>
	<g>
		
			<rect x="835.166" y="1697.599" transform="matrix(-0.9986 -0.0524 0.0524 -0.9986 1647.817 3644.5774)" fill="#FFFFFF" width="73.027" height="206.182"/>
		<polygon fill="#FFFFFF" points="1030.111,1912.23 957.182,1908.412 967.973,1702.509 1040.901,1706.328 		"/>
		<polygon fill="#FFFFFF" points="984.412,1880.087 957.182,1908.412 840.721,1695.837 913.649,1699.66 992.111,1839.986 		"/>
	</g>
	<g>
		<rect x="1124.775" y="1778.494" fill="#FFFFFF" width="70.157" height="135.305"/>
		<polygon fill="#FFFFFF" points="1184.105,1813.115 1145.61,1848.208 1062.132,1707.613 1132.294,1707.613 1158.23,1751.105 		"/>
		<polygon fill="#FFFFFF" points="1159.851,1815.001 1194.663,1813.115 1254.711,1707.613 1184.554,1707.613 1158.23,1751.105 		"/>
	</g>
	<g>
		<g>
			<polygon fill="#FFFFFF" points="1360.383,1908.207 1287.451,1912.027 1276.659,1706.125 1349.591,1702.304 			"/>
		</g>
		
			<rect x="1278.474" y="1701.038" transform="matrix(0.9986 -0.0523 0.0523 0.9986 -88.9236 74.2812)" fill="#FFFFFF" width="192.573" height="70.162"/>
		
			<rect x="1285.586" y="1836.89" transform="matrix(0.9986 -0.0523 0.0523 0.9986 -96.0183 74.8384)" fill="#FFFFFF" width="192.575" height="70.157"/>
	</g>
</g>
<path fill="#0A600A" d="M1169.916,603.071c0,0-21.231,22.499-60.229-25.499c-38.998-47.998-112.495-131.992-59.997-368.981
	s106.958-185.992,120.226-167.993s35.766,53.997,44.766,67.497s14.999,41.998,0,55.497s-81.027,106.369-87.057,166.369
	c0,0-5.03,21,9.97,21s22-30,22-30s40-100,106-141s156-42,177-42s131,17,181-78c0,0,24-32,48-26s59,37,52,95s-29,217-155,295
	s-273,167-367,77c0,0-23.766-35-34.883-24s-5.117,24,14.883,51S1202.31,593.071,1169.916,603.071z"/>
<path fill="#1C7A1C" d="M1159.595,83.96c0,0,31,39,24,53s-31,42-40.5,67s-85.5,197,6.5,333c0,0,21,26,1,35s-30-19-41-30
	s-80-107-44-279s51-153,62-179S1159.595,83.96,1159.595,83.96z"/>
<path fill="#1C7A1C" d="M1152.595,401.96c0,0,20.059-47.801,32.029-78.9s74.971-146.1,233.971-152.1s177-6.717,232-91
	c0,0,7-13.111,29-7.556s14,45.556,14,45.556s-12,154-104,233s-125.924,99.677-228.462,130.838s-169.538-18.838-119.538-102.838
	s98.418-103,182.209-118c0,0,41.791-4,47.791-30c0,0,5-6-61,9s-115,8-207,125C1203.595,364.96,1174.595,412.96,1152.595,401.96z"/>
</svg>
